<?xml version="1.0" encoding="utf-8"?>
<!-- Generator: Adobe Illustrator 26.4.1, SVG Export Plug-In . SVG Version: 6.00 Build 0)  -->
<svg version="1.1" xmlns="http://www.w3.org/2000/svg" xmlns:xlink="http://www.w3.org/1999/xlink" x="0px" y="0px"
	 viewBox="0 0 500 500" style="enable-background:new 0 0 500 500;" xml:space="preserve">
<style type="text/css">
	.st0{fill:#92E3A9;}
	.st1{opacity:0.7;fill:#FFFFFF;}
	.st2{fill:none;stroke:#263238;stroke-miterlimit:10;}
	.st3{fill:#263238;}
	.st4{fill:#FFFFFF;stroke:#263238;stroke-miterlimit:10;}
	.st5{fill:#263238;stroke:#263238;stroke-miterlimit:10;}
	.st6{fill:#545454;stroke:#263238;stroke-miterlimit:10;}
	.st7{fill:#92E3A9;stroke:#263238;stroke-miterlimit:10;}
	.st8{fill:#FFFFFF;}
	.st9{fill:#BFBFBF;stroke:#263238;stroke-miterlimit:10;}
</style>
<g id="Background_Simple">
	<g>
		<path class="st0" d="M53.25,213.46c0,0-43.13,65.04-12.46,163.15c30.66,98.11,119.8,123.14,172.69,95.86
			c52.89-27.28,60.61-62.7,103.31-88.43c42.71-25.74,130.89-24.82,164.83-95.61c33.95-70.79-36.44-170.02-116.18-227.15
			C285.7,4.14,112.61,71.74,53.25,213.46z"/>
		<path class="st1" d="M53.25,213.46c0,0-43.13,65.04-12.46,163.15c30.66,98.11,119.8,123.14,172.69,95.86
			c52.89-27.28,60.61-62.7,103.31-88.43c42.71-25.74,130.89-24.82,164.83-95.61c33.95-70.79-36.44-170.02-116.18-227.15
			C285.7,4.14,112.61,71.74,53.25,213.46z"/>
	</g>
</g>
<g id="Crowd">
	<g>
		<path class="st2" d="M5.42,308.51c0,0,232.38-42.53,479.07-69.52"/>
		<g>
			<circle class="st2" cx="92.41" cy="264.18" r="9.24"/>
			<circle class="st2" cx="126.83" cy="259.98" r="5.88"/>
			<path class="st2" d="M110.04,237.32c0,3.71-3.01,6.72-6.72,6.72c-3.71,0-6.72-3.01-6.72-6.72c0-3.71,3.01-6.72,6.72-6.72
				C107.03,230.6,110.04,233.61,110.04,237.32z"/>
			<path class="st2" d="M75.62,222.2c0,2.78-2.26,5.04-5.04,5.04c-2.78,0-5.04-2.26-5.04-5.04c0-2.78,2.26-5.04,5.04-5.04
				C73.36,217.17,75.62,219.42,75.62,222.2z"/>
			<path class="st2" d="M99.97,208.35c0,3.01-2.44,5.46-5.46,5.46c-3.01,0-5.46-2.44-5.46-5.46c0-3.01,2.44-5.46,5.46-5.46
				C97.52,202.89,99.97,205.34,99.97,208.35z"/>
			<path class="st2" d="M173.85,257.05c0,2.55-2.07,4.62-4.62,4.62c-2.55,0-4.62-2.07-4.62-4.62c0-2.55,2.07-4.62,4.62-4.62
				C171.78,252.43,173.85,254.5,173.85,257.05z"/>
			
				<ellipse transform="matrix(0.9246 -0.3808 0.3808 0.9246 -63.7309 118.1234)" class="st2" cx="266.62" cy="220.1" rx="7.98" ry="7.98"/>
			<circle class="st2" cx="308.37" cy="190.8" r="8.21"/>
			<path class="st2" d="M283.83,197.02c0,1.85-1.5,3.36-3.36,3.36c-1.85,0-3.36-1.5-3.36-3.36c0-1.85,1.5-3.36,3.36-3.36
				C282.33,193.66,283.83,195.16,283.83,197.02z"/>
			<circle class="st2" cx="357.72" cy="194.5" r="3.36"/>
			<path class="st2" d="M323.29,204.57c0,2.32-1.88,4.2-4.2,4.2c-2.32,0-4.2-1.88-4.2-4.2s1.88-4.2,4.2-4.2
				C321.41,200.37,323.29,202.25,323.29,204.57z"/>
			<circle class="st2" cx="412.29" cy="212.13" r="5.88"/>
			<circle class="st2" cx="391.72" cy="165.53" r="2.94"/>
			<path class="st2" d="M444.19,195.34c0,2.78-2.26,5.04-5.04,5.04s-5.04-2.26-5.04-5.04c0-2.78,2.26-5.04,5.04-5.04
				S444.19,192.55,444.19,195.34z"/>
			<circle class="st2" cx="428.66" cy="224.3" r="5.46"/>
			<path class="st2" d="M388.78,188.2c0,2.09-1.69,3.78-3.78,3.78c-2.09,0-3.78-1.69-3.78-3.78c0-2.09,1.69-3.78,3.78-3.78
				C387.09,184.42,388.78,186.11,388.78,188.2z"/>
			<circle class="st2" cx="388.36" cy="147.06" r="8.82"/>
			<path class="st2" d="M468.54,225.56c0,2.32-1.88,4.2-4.2,4.2c-2.32,0-4.2-1.88-4.2-4.2s1.88-4.2,4.2-4.2
				C466.66,221.36,468.54,223.24,468.54,225.56z"/>
			
				<ellipse transform="matrix(0.7071 -0.7071 0.7071 0.7071 -49.5101 355.1028)" class="st2" cx="403.89" cy="237.32" rx="7.56" ry="7.56"/>
			<path class="st2" d="M438.31,175.19c0,2.32-1.88,4.2-4.2,4.2s-4.2-1.88-4.2-4.2c0-2.32,1.88-4.2,4.2-4.2
				S438.31,172.87,438.31,175.19z"/>
			<path class="st2" d="M223.38,236.9c0,2.55-2.07,4.62-4.62,4.62c-2.55,0-4.62-2.07-4.62-4.62c0-2.55,2.07-4.62,4.62-4.62
				C221.32,232.28,223.38,234.35,223.38,236.9z"/>
			<circle class="st2" cx="229.26" cy="263.34" r="6.72"/>
			<path class="st2" d="M197.36,244.45c0,2.09-1.69,3.78-3.78,3.78c-2.09,0-3.78-1.69-3.78-3.78c0-2.09,1.69-3.78,3.78-3.78
				C195.67,240.67,197.36,242.37,197.36,244.45z"/>
			<circle class="st2" cx="145.3" cy="275.1" r="5.04"/>
			<path class="st2" d="M58.83,282.23c0,3.48-2.82,6.3-6.3,6.3c-3.48,0-6.3-2.82-6.3-6.3c0-3.48,2.82-6.3,6.3-6.3
				C56.01,275.94,58.83,278.75,58.83,282.23z"/>
			<circle class="st2" cx="60.93" cy="250.33" r="2.94"/>
			<circle class="st2" cx="98.71" cy="174.77" r="2.94"/>
			<path class="st2" d="M42.04,266.7c0,2.32-1.88,4.2-4.2,4.2c-2.32,0-4.2-1.88-4.2-4.2c0-2.32,1.88-4.2,4.2-4.2
				C40.16,262.5,42.04,264.38,42.04,266.7z"/>
		</g>
	</g>
</g>
<g id="Floor_1_">
	<path class="st2" d="M30.6,414.3c0,0,216.62-40.81,446.58-66.71"/>
</g>
<g id="Shadow">
	<path class="st3" d="M445.71,361.74c0.67,4.29-82.33,20.79-185.38,36.84c-103.05,16.06-187.14,25.6-187.81,21.3
		c-0.67-4.29,82.33-20.79,185.38-36.84C360.96,366.99,445.04,357.45,445.71,361.74z"/>
</g>
<g id="Car">
	<g>
		<g>
			<path class="st4" d="M262.24,366.28c1.04-5.43,1.26-11.5,0.48-17.82c-0.78-6.32-2.47-12.16-4.79-17.17l-2.52-20.44l-20.01,2.97
				c-12.54,1.54-20.64,19.56-18.09,40.23c2.55,20.67,14.78,36.18,27.31,34.64l20.01-2.97L262.24,366.28z"/>
			
				<ellipse transform="matrix(0.9925 -0.1222 0.1222 0.9925 -40.6251 34.3983)" class="st5" cx="260.03" cy="348.29" rx="22.88" ry="37.72"/>
			
				<ellipse transform="matrix(0.9925 -0.1222 0.1222 0.9925 -40.6265 34.3996)" class="st4" cx="260.03" cy="348.29" rx="14.91" ry="24.59"/>
			<path class="st4" d="M262.38,347.1c0.55,4.48-1.2,8.38-3.92,8.71c-2.71,0.33-5.36-3.02-5.91-7.5c-0.55-4.48,1.2-8.38,3.92-8.71
				C259.18,339.27,261.83,342.62,262.38,347.1z"/>
		</g>
		<path class="st5" d="M450.03,311.93l-10.94,2.43c0,0-9.73-18.06-24.9-15.56c-15.17,2.5-21.81,17.42-21.81,17.42
			s6.05-32.74,17.36-42.55c11.32-9.81,18.65-2.57,23.04-0.27C437.19,275.7,448.61,301.28,450.03,311.93z"/>
		<g>
			<path class="st5" d="M424.75,344.66c1.04-5.43,1.26-11.5,0.48-17.82c-0.78-6.32-2.47-12.16-4.79-17.17l-2.52-20.44l-20.01,2.97
				c-12.54,1.54-20.64,19.56-18.09,40.23c2.55,20.67,14.78,36.18,27.31,34.64l20.01-2.97L424.75,344.66z"/>
			
				<ellipse transform="matrix(0.9925 -0.1222 0.1222 0.9925 -36.7636 54.1011)" class="st5" cx="422.53" cy="326.67" rx="22.88" ry="37.72"/>
			<path class="st4" d="M437.33,324.84c1.66,13.48-3.62,25.22-11.79,26.23c-8.17,1.01-16.15-9.1-17.81-22.58
				c-1.66-13.48,3.62-25.22,11.79-26.23C427.7,301.26,435.67,311.37,437.33,324.84z"/>
			<path class="st4" d="M424.88,325.48c0.55,4.48-1.2,8.37-3.92,8.71c-2.71,0.33-5.36-3.02-5.91-7.5c-0.55-4.48,1.2-8.38,3.92-8.71
				C421.68,317.64,424.33,321,424.88,325.48z"/>
		</g>
		<g>
			<path class="st6" d="M91.14,393.12c1.04-5.43,1.26-11.5,0.48-17.82c-0.78-6.32-2.47-12.16-4.79-17.17l-2.52-20.44l-20.01,2.97
				c-12.54,1.54-20.64,19.56-18.09,40.23c2.55,20.67,14.78,36.18,27.31,34.64l20.01-2.97L91.14,393.12z"/>
			
				<ellipse transform="matrix(0.9925 -0.1222 0.1222 0.9925 -45.1908 13.6843)" class="st5" cx="88.92" cy="375.12" rx="22.88" ry="37.72"/>
			
				<ellipse transform="matrix(0.9925 -0.1222 0.1222 0.9925 -45.1888 13.6836)" class="st5" cx="88.92" cy="375.12" rx="14.91" ry="24.59"/>
			<path class="st5" d="M91.28,373.94c0.55,4.48-1.2,8.38-3.92,8.71c-2.71,0.33-5.36-3.02-5.91-7.5c-0.55-4.48,1.2-8.37,3.92-8.71
				C88.08,366.1,90.73,369.46,91.28,373.94z"/>
		</g>
		<g>
			<path class="st5" d="M71.18,333.68c0,0,5.75-1.14,8.01,0.77c2.26,1.91,2.63,4.47,2.63,4.47l15.62-1.35l4.68-13.52
				c0,0-7.48-1.62-13.58,0.69C82.45,327.04,71.18,333.68,71.18,333.68z"/>
			<path class="st6" d="M99.43,322.66c0,0-33.35,1.17-42.5,6.1c-9.15,4.93-9.57,11.17-9.57,11.17l27.44-3.75
				c0,0,11.27-10.3,22.38-10.91L99.43,322.66z"/>
		</g>
		<path class="st7" d="M196,292.01c0,0-65.79,14.04-78.32,19.61c-12.53,5.57-24.15,15.61-28.88,23.46
			c-4.73,7.85-0.86,17.15,0.01,19.58c0.87,2.43,5.26,17.02,12.71,22.17c7.45,5.15,10.75,6.71,16.05,6.6c5.3-0.11,33-1.92,41.52-4.55
			c8.51-2.63,209.44-32.68,209.44-32.68s25.43-11.46,30.65-15.24c5.22-3.78,4.74-5.95,5.28-14.45c0.54-8.5,1.73-29.1,10.17-39.75
			c8.44-10.65,20.92-0.98,27.38,14.4c6.46,15.39,8.02,20.77,8.02,20.77s2.05,2.84,0.48-3.08c-1.57-5.92-2.29-14.39-8.87-26.53
			c-6.57-12.14-16.08-17.71-22.05-18.31s-15.33,0.69-15.33,0.69s-2.2-1.4-6.35-1.49c-4.15-0.09-18.43-1.05-43.24,3.8
			c-24.81,4.86-107.08,14.52-107.08,14.52L196,292.01z"/>
		<path class="st8" d="M154.18,312.3c1.59,5.13-7.5,12.5-20.3,16.47c-12.8,3.97-24.47,3.03-26.06-2.1
			c-1.59-5.13,7.5-12.5,20.3-16.47C140.92,306.23,152.59,307.17,154.18,312.3z"/>
		<path class="st8" d="M399.47,292.92c0.13,6.35-4.82,11.6-11.07,11.73c-6.25,0.13-11.42-4.91-11.56-11.25
			c-0.13-6.35,4.82-11.6,11.07-11.73C394.16,281.53,399.33,286.57,399.47,292.92z"/>
		<path class="st2" d="M171.28,364.78c-2.63,7.09-8.12,10.61-8.12,10.61"/>
		<path class="st2" d="M196.69,323.56c0,0-27.94,4.44-28.94,8.86c-1.01,4.42,4.64,11.44,4.91,24.08c0.02,1.09-0.03,2.13-0.14,3.12"
			/>
		<polygon class="st3" points="270.7,340.68 364.88,323.85 364.74,332.82 274.7,350.1 		"/>
		<g>
			<path class="st2" d="M157.85,326.15c6.45-6.43,18.82-15.7,39.85-21.05"/>
			<path class="st2" d="M152,333.24c0,0,1.04-1.8,3.46-4.55"/>
			<path class="st2" d="M202.24,320.61c0.61,4.02,0.97,7.02,0.97,7.02"/>
			<path class="st2" d="M169.93,300.65c0,0,23.1-2.5,26.66-0.56c1.78,0.97,3.44,7.87,4.65,14.53"/>
		</g>
		<g>
			
				<ellipse transform="matrix(0.9998 -0.0212 0.0212 0.9998 -6.4324 6.0207)" class="st8" cx="281.31" cy="307" rx="28.64" ry="27.4"/>
			<g>
				<path class="st3" d="M266.5,328.59l-0.66-4.41l5.44-15.43c0.4-1.13,0.77-2.21,1.12-3.24c0.35-1.03,0.61-2.08,0.77-3.14
					c0.16-1.07,0.15-2.2-0.02-3.4c-0.2-1.35-0.56-2.34-1.06-2.98c-0.51-0.64-1.19-0.87-2.04-0.7c-0.8,0.16-1.39,0.56-1.76,1.19
					c-0.37,0.63-0.57,1.4-0.6,2.3c-0.03,0.9,0.03,1.88,0.19,2.93l0.23,1.53l-5.11,1.04l-0.24-1.62c-0.32-2.16-0.34-4.11-0.04-5.85
					c0.29-1.74,0.96-3.2,2-4.37c1.04-1.17,2.51-1.95,4.41-2.34c2.6-0.53,4.68-0.09,6.23,1.32c1.55,1.41,2.55,3.62,3,6.61
					c0.22,1.5,0.25,2.89,0.08,4.18c-0.17,1.28-0.46,2.54-0.87,3.77c-0.41,1.23-0.87,2.49-1.37,3.8l-4.54,12.6l9.24-1.89l0.74,4.99
					L266.5,328.59z"/>
				<path class="st3" d="M285.16,324.78l-0.66-4.41l5.44-15.43c0.4-1.13,0.77-2.21,1.12-3.24c0.35-1.03,0.61-2.08,0.77-3.14
					c0.16-1.07,0.15-2.2-0.02-3.4c-0.2-1.35-0.56-2.34-1.06-2.98c-0.51-0.64-1.19-0.87-2.04-0.69c-0.8,0.16-1.39,0.56-1.76,1.19
					s-0.57,1.4-0.6,2.3c-0.03,0.9,0.03,1.88,0.19,2.93l0.23,1.53l-5.11,1.04l-0.24-1.62c-0.32-2.16-0.34-4.11-0.04-5.85
					c0.29-1.74,0.96-3.2,2-4.37c1.04-1.17,2.51-1.95,4.41-2.34c2.6-0.53,4.68-0.09,6.23,1.32c1.55,1.41,2.55,3.62,3,6.61
					c0.22,1.5,0.25,2.89,0.08,4.18c-0.17,1.28-0.46,2.54-0.87,3.77c-0.41,1.23-0.87,2.49-1.37,3.8l-4.54,12.6l9.24-1.89l0.74,4.99
					L285.16,324.78z"/>
			</g>
		</g>
		<polygon class="st5" points="244.95,291.39 263.46,314.47 246.64,326.45 223.4,326.47 205.18,305.75 215.2,297.47 		"/>
		<path class="st5" d="M134.58,333.37c0,0-21.95,1.42-33.99,4.86c-12.03,3.44-10.3,10.09-7.27,17.68
			c3.03,7.58,6.02,13.57,11.44,13.46c5.41-0.11,35.95-2.35,40.05-4.67c4.09-2.32,3.61-10.27,2.81-17.9
			C146.81,339.16,144.47,333.79,134.58,333.37z"/>
		<path class="st5" d="M254.85,302.87c0,0,9.24,2.52,16.5,16.31c7.26,13.79,8.66,24.8,8.66,24.8l-7.72,1.33
			c0,0-5.62-18.47-18.11-23.24c-12.49-4.77-15.56-3.35-15.56-3.35s1.24-5.45-10.04-7.92C228.57,310.79,237.11,301.11,254.85,302.87z
			"/>
		<g>
			<polygon class="st5" points="212.91,335.95 172.06,337.95 174.08,340.16 211.84,338.8 			"/>
			<polygon class="st5" points="214.33,369.77 168.65,372.09 170.92,374.75 213.14,373.18 			"/>
			<polygon class="st5" points="211.05,354.89 189.92,355.62 191.4,357.82 211.38,356.86 			"/>
		</g>
		<g>
			<path class="st6" d="M254.21,370.89c1.04-5.43,1.26-11.5,0.48-17.82c-0.78-6.32-2.47-12.16-4.79-17.17l-2.52-20.44l-20.01,2.97
				c-12.54,1.54-20.64,19.56-18.09,40.23c2.55,20.67,14.78,36.18,27.31,34.64l20.01-2.97L254.21,370.89z"/>
			
				<ellipse transform="matrix(0.9925 -0.1222 0.1222 0.9925 -41.2489 33.4508)" class="st5" cx="251.99" cy="352.9" rx="22.88" ry="37.72"/>
			
				<ellipse transform="matrix(0.9925 -0.1222 0.1222 0.9925 -41.2503 33.452)" class="st4" cx="251.99" cy="352.9" rx="14.91" ry="24.59"/>
			<path class="st5" d="M254.35,351.71c0.55,4.48-1.2,8.38-3.92,8.71c-2.71,0.33-5.36-3.02-5.91-7.5c-0.55-4.48,1.2-8.38,3.92-8.71
				C251.15,343.88,253.8,347.23,254.35,351.71z"/>
		</g>
		<g>
			<path class="st6" d="M252.44,302.64c-7.62-0.72-15.31-0.53-22.85,0.79c-5.03,0.88-10.27,2.25-13.74,4.35
				c-8.69,5.25-8.85,11.5-8.85,11.5l26.53-4.71c0,0,10.53-10.69,21.32-11.7L252.44,302.64z"/>
		</g>
		<line class="st2" x1="394.6" y1="266.8" x2="400.1" y2="265.99"/>
		<path class="st2" d="M368.52,346.2c0,0-10.32-61.26,13.59-77.56l6.45-0.95"/>
		<g>
			<path class="st3" d="M249.86,241.9l-1.56-3.29c0.21-0.1,21.08-9.94,41.29-14.38l0.78,3.56
				C270.56,232.14,250.06,241.8,249.86,241.9z"/>
		</g>
		<g>
			<path class="st3" d="M222.6,246.38l-3.38-1.52c12.29-7.84,71.91-21.28,74.38-21.79l0.73,3.57
				C293.73,226.76,234.32,238.91,222.6,246.38z"/>
		</g>
		<path class="st3" d="M301.41,274.72c0,0-2.58-4.06-3.56-8.9c-0.98-4.84,0.42-9.61-4.93-14.74c-5.35-5.13-15.41-3.42-23.3,1.12
			c-7.89,4.53-6.31,14.23-7.46,18.74c-1.15,4.51-3.55,8.93-3.55,8.93L301.41,274.72z"/>
		<g>
			<g>
				<path class="st4" d="M284.53,261.11c0,0-18.17,13.85-22.62,15.57c-4.45,1.72-6.33,1.26-9.15-2.05
					c-2.81-3.31-5.77-13.22-6.43-20.82c-0.66-7.59,4.37-17.55,15.16-20.53c10.79-2.97,21.51,2.79,23.41,9.98
					c1.9,7.19,3.48,11.15,2.51,12.54c-0.97,1.39-2.34,1.55-2.31,2.67C285.12,259.6,284.53,261.11,284.53,261.11z"/>
				<path class="st5" d="M248.68,264.23c0,0,0.43,2.61,6.64,1.48c6.21-1.13,14.97-5.8,16.93-7.22c1.97-1.41,1.03-4.39,0.87-6.13
					c-0.16-1.74-1.86,0.29-12.67,2.39c-10.81,2.1-13.43,1.66-13.43,1.66L248.68,264.23z"/>
				<g>
					<path class="st4" d="M261.16,254.61c-0.24,0.05-0.46,0.1-0.71,0.14c-0.46,0.09-0.88,0.17-1.31,0.25l2.14,8.94
						c0.63-0.24,1.27-0.5,1.89-0.76L261.16,254.61z"/>
					<path class="st4" d="M255.32,265.72c0.77-0.14,1.59-0.34,2.43-0.58l-2.24-9.5c-2.11,0.34-3.75,0.54-4.98,0.66l2.12,9.69
						C253.4,265.98,254.27,265.91,255.32,265.72z"/>
				</g>
			</g>
			<path class="st7" d="M284.53,261.11c0,0,2.09,0,2.12,1.34c0.03,1.34-0.87,6.56-0.87,6.56l15.62,5.71l-42.8,5.15l3.3-3.19
				L284.53,261.11z"/>
		</g>
		<path class="st5" d="M319.99,262.03l0.67,2.39c0.26,0.93,1.2,1.51,2.15,1.31l11.93-2.44c1.04-0.21,1.69-1.26,1.42-2.29l-0.84-3.15
			c-0.26-0.99-1.28-1.58-2.27-1.31l-11.76,3.2C320.29,260.02,319.71,261.04,319.99,262.03z"/>
		<path class="st2" d="M326.14,265.3c0,0,1.37,1.31,0.06,2.85c-1.31,1.54-5.78,4.15-5.78,4.15"/>
		<path class="st5" d="M178.84,279.39c-1.03-0.02-1.85,0.88-1.69,1.9c0.21,1.42,0.66,3.12,1.61,3.57c1.69,0.8,5.22,1.06,7.9,0.84
			c2.68-0.22,3.67-0.75,3.49-1.58c-0.11-0.49-0.65-2.23-1.07-3.6c-0.32-1.01-1.29-1.65-2.34-1.56
			C184.63,279.16,181.15,279.44,178.84,279.39z"/>
		<path class="st2" d="M185.16,286.24c0,0-0.65,0.85,0.87,1.66c1.53,0.81,7.54,5.02,7.54,5.02"/>
		<path class="st5" d="M112.73,318.75l-4.66,4.6l33.42-4.71l5.27-4.99C146.77,313.65,123.65,314.89,112.73,318.75z"/>
		<g>
			<path class="st3" d="M302.49,312.15L302.49,312.15c-0.98-0.22-1.6-1.17-1.39-2.15c1.57-7.35,7.46-35.72,7.86-49.17
				c0.48-16.31-1.06-23.81-5.17-25.09c-5.19-1.53-73.04,9.47-84.37,12.27c-9.44,2.34-10.87,5.74-13.71,12.53l-0.27,0.64
				c-3,7.16-11.78,31.49-11.87,31.73l-3.89,0.89c0.36-1,9.35-26.78,12.39-34.03l0.26-0.63c2.99-7.16,4.97-11.89,16.19-14.66
				c10.19-2.52,79.93-14.19,86.32-12.21c7.06,2.19,8.2,13.05,7.74,28.67c-0.41,13.93-6.33,42.36-7.93,49.83
				C304.45,311.75,303.48,312.37,302.49,312.15z"/>
		</g>
		<g>
			<path class="st3" d="M310.13,239.76l-1.8-3.16c1.41-0.8,34.78-19.67,65.75-23.27l0.42,3.62
				C344.27,220.45,310.46,239.57,310.13,239.76z"/>
		</g>
		<g>
			<g>
				<polygon class="st3" points="333.6,304.76 318.23,273.37 322.6,271.23 339.08,304.86 				"/>
			</g>
			<path class="st3" d="M359.82,310.1c-6.47,0.14-40.06-4.89-54.89-7.17l0.55-3.6c19.47,2.99,51.45,7.58,54.3,7.16
				c2.36-0.7,2.68-0.8,4.41-6.13c0.93-2.86,2.52-11.22,4.06-19.3c2.11-11.09,3.45-17.98,4.33-19.67c1.51-2.91,9.12-18.97,9.2-19.13
				l3.29,1.56c-0.31,0.66-7.71,16.28-9.25,19.25c-0.68,1.32-2.51,10.95-3.99,18.68c-1.63,8.57-3.17,16.66-4.17,19.74
				c-2.11,6.5-3.2,7.42-6.95,8.53C360.53,310.06,360.23,310.09,359.82,310.1z"/>
		</g>
		<g>
			
				<rect x="341.09" y="216.27" transform="matrix(0.2648 -0.9643 0.9643 0.2648 10.9932 514.495)" class="st3" width="3.64" height="67.53"/>
		</g>
		<g>
			<path class="st3" d="M380.76,263.77l-3.76-0.13c0,0,4.34-12.89,5.59-16.66c0.97-2.92-2.49-16.94-5.9-25.94
				c-2.57-6.77-4.33-7.3-18.83-5.62c-18.36,2.13-70.81,11.34-74.41,15.08c-0.82,1.12-0.74,1.58-0.73,1.58
				c0.1,0.18,4.57,1.65,5.19,1.71l-4.06,2.45c-0.34-0.03-3.38-0.33-4.44-2.64c-0.7-1.52-0.32-3.3,1.14-5.29
				c4.46-6.09,71.4-15.88,76.9-16.51c13.98-1.62,19-1.69,22.65,7.95c2.77,7.31,7.52,23.67,5.95,28.38
				C384.8,251.91,380.76,263.77,380.76,263.77z"/>
		</g>
		<g>
			<polygon class="st3" points="368.37,265.06 341.66,216.67 344.85,214.91 372.28,264.36 			"/>
		</g>
		<g>
			<polygon class="st3" points="316.36,273.37 291.28,226.28 296.64,223.43 322.18,272.16 			"/>
		</g>
		<g>
			
				<rect x="287.75" y="236.81" transform="matrix(0.8612 -0.5083 0.5083 0.8612 -75.1711 201.9864)" class="st3" width="88.97" height="3.64"/>
		</g>
		<path class="st9" d="M212.7,293.78c0,0-10.78,5.26-10.33,6.92s2.64,5.81,5.17,6.6c2.53,0.78,5.86-0.12,6.26-1.39
			c0.39-1.27,4.06-5.95,4.06-5.95l27.93-6.88l3.85,3.69c0,0-4.78-7.86-7.73-8.64S212.7,293.78,212.7,293.78z"/>
		<g>
			<path class="st4" d="M247.59,281.53c0,0-7.49-6.78-16.06-7c-8.57-0.23-21.97,2.91-27.17,7.51c-5.21,4.6-8.36,9.97-8.36,9.97
				L247.59,281.53z"/>
			<path class="st4" d="M247.59,281.53c0,0-3.89-3.5-9.25-5.55c-11.35,3.52-24.29,10.9-28.08,13.13L247.59,281.53z"/>
		</g>
	</g>
</g>
<g id="Flag">
	<g>
		<path class="st3" d="M349.51,43.27c4.73-0.01,9.41,0.08,14.01,0.28l0.14,14.36c-4.6-0.2-9.28-0.29-14.01-0.28L349.51,43.27"/>
		<path class="st8" d="M349.66,57.67l0-0.05c4.73-0.01,9.41,0.08,14.01,0.28l0.18,17.74c-5.85-0.22-7.7-0.26-14.01-0.28
			L349.66,57.67"/>
		<path class="st3" d="M349.83,75.4l0-0.04c6.02,0.02,7.89,0.04,14.01,0.28l0.18,17.78c-4.6-0.2-9.28-0.29-14.01-0.28L349.83,75.4"
			/>
		<path class="st8" d="M350.01,93.19l0-0.05c4.73-0.01,9.41,0.08,14.01,0.28l0.18,17.74c-4.6-0.2-9.28-0.29-14.01-0.28L350.01,93.19
			"/>
		<path class="st3" d="M350.19,110.92l0-0.04c4.73-0.01,9.41,0.08,14.01,0.28l0.18,17.78c-4.6-0.2-9.28-0.29-14.01-0.28
			L350.19,110.92"/>
		<path class="st8" d="M350.37,128.71l0-0.04c4.73-0.01,9.41,0.08,14.01,0.28l0.18,17.73c-4.6-0.2-9.28-0.29-14.01-0.28
			L350.37,128.71"/>
		<path class="st3" d="M350.55,146.44l0-0.05c4.73-0.01,9.41,0.08,14.01,0.28l0.18,17.79c-4.6-0.2-9.28-0.29-14.01-0.28
			L350.55,146.44"/>
		<path class="st8" d="M350.73,164.23l0-0.04c4.73-0.01,9.41,0.08,14.01,0.28l0.15,14.51c-4.6-0.2-9.28-0.29-14.01-0.28
			L350.73,164.23"/>
		<g>
			<polyline class="st8" points="349.66,57.63 349.65,57.57 349.66,57.67 349.66,57.63 			"/>
			<path class="st8" d="M323.98,44.3c8.52-0.66,17.1-1.01,25.53-1.04l0.14,14.3c-8.43,0.02-17,0.38-25.53,1.04L323.98,44.3"/>
		</g>
		<path class="st3" d="M349.83,75.4l0-0.04l-0.18-17.69l0-0.11c-8.43,0.02-17,0.38-25.53,1.04l0,0.04l0.18,17.75
			c8.52-0.66,17.1-1.01,25.53-1.04L349.83,75.4"/>
		<path class="st8" d="M350.01,93.19l0-0.05l-0.18-17.75l0-0.05c-8.43,0.02-17,0.38-25.53,1.04l0,0.05l0.18,17.69
			c8.52-0.66,17.1-1.01,25.53-1.04L350.01,93.19"/>
		<path class="st3" d="M350.19,110.92l0-0.04l-0.18-17.69l0-0.11c-8.43,0.02-17,0.38-25.53,1.04l0,0.04l0.18,17.75
			c8.52-0.66,17.1-1.01,25.53-1.04L350.19,110.92"/>
		<path class="st8" d="M350.37,128.71l0-0.04l-0.18-17.75l0-0.05c-8.43,0.02-17,0.38-25.53,1.04l0,0.04l0.18,17.69
			c8.52-0.66,17.1-1.01,25.53-1.04L350.37,128.71"/>
		<path class="st3" d="M350.55,146.44l0-0.05l-0.18-17.69l0-0.11c-8.43,0.02-17,0.38-25.53,1.04l0,0.05l0.18,17.75
			c8.52-0.66,17.1-1.01,25.53-1.04L350.55,146.44"/>
		<path class="st8" d="M350.73,164.23l0-0.04l-0.18-17.75l0-0.05c-8.43,0.02-17,0.38-25.53,1.04l0,0.04l0.18,17.69
			c8.52-0.66,17.1-1.01,25.53-1.04L350.73,164.23"/>
		<path class="st3" d="M325.2,165.19l0-0.04c8.52-0.66,17.1-1.01,25.53-1.04l0,0.11l0.15,14.47c-8.43,0.02-17,0.38-25.53,1.04
			L325.2,165.19"/>
		<g>
			<polyline class="st3" points="324.13,58.6 324.13,58.59 324.13,58.64 324.13,58.6 			"/>
			<path class="st3" d="M298.8,47.16c8.2-1.24,16.67-2.2,25.19-2.85l0.14,14.29c-8.52,0.66-16.99,1.62-25.19,2.85L298.8,47.16"/>
		</g>
		<path class="st8" d="M324.31,76.44l0-0.05l-0.18-17.75l0-0.05c-8.52,0.66-16.99,1.62-25.19,2.85l0,0.04l0.18,17.69
			c8.2-1.24,16.67-2.2,25.19-2.85L324.31,76.44"/>
		<path class="st3" d="M324.49,94.16l0-0.04l-0.18-17.69l0-0.12c-8.52,0.66-16.99,1.62-25.19,2.85l0,0.05l0.18,17.75
			c8.2-1.24,16.67-2.2,25.19-2.85L324.49,94.16"/>
		<path class="st8" d="M324.67,111.95l0-0.04l-0.18-17.75l0-0.05c-8.52,0.66-16.99,1.62-25.19,2.85l0,0.04l0.18,17.69
			c8.2-1.24,16.67-2.2,25.19-2.85L324.67,111.95"/>
		<path class="st3" d="M324.85,129.68l0-0.05l-0.18-17.69l0-0.11c-8.52,0.66-16.99,1.62-25.19,2.85l0,0.05l0.18,17.75
			c8.2-1.24,16.67-2.2,25.19-2.85L324.85,129.68"/>
		<path class="st8" d="M325.03,147.47l0-0.04l-0.18-17.75l0-0.05c-8.52,0.66-16.99,1.62-25.19,2.85l0,0.04l0.18,17.69
			c8.2-1.24,16.67-2.2,25.19-2.85L325.03,147.47"/>
		<path class="st3" d="M325.2,165.19l0-0.04l-0.18-17.69l0-0.11c-8.52,0.66-16.99,1.62-25.19,2.85l0,0.04l0.18,17.75
			c8.2-1.24,16.67-2.2,25.19-2.85L325.2,165.19"/>
		<path class="st8" d="M300.02,168.05l0-0.05c8.2-1.24,16.67-2.2,25.19-2.85l0,0.05l0.15,14.54c-8.52,0.66-16.99,1.62-25.19,2.85
			L300.02,168.05"/>
		<g>
			<polyline class="st8" points="298.94,61.45 298.94,61.38 298.94,61.49 298.94,61.45 			"/>
			<path class="st8" d="M276.69,51.32c4.26-0.98,8.67-1.88,13.19-2.69c2.93-0.53,5.91-1.02,8.92-1.47l0.14,14.23
				c-3.01,0.45-5.99,0.95-8.92,1.47c-4.52,0.81-8.93,1.71-13.19,2.69L276.69,51.32"/>
		</g>
		<path class="st3" d="M299.12,79.22l0-0.05l-0.18-17.69l0-0.11c-3.01,0.45-5.99,0.95-8.92,1.47c-4.52,0.81-8.93,1.71-13.19,2.69
			l0,0.05l0.18,17.75c4.26-0.98,8.67-1.88,13.19-2.69c2.93-0.53,5.91-1.02,8.92-1.47L299.12,79.22"/>
		<path class="st8" d="M299.3,97.01l0-0.04l-0.18-17.75l0-0.05c-3.01,0.45-5.99,0.95-8.92,1.47c-4.52,0.81-8.93,1.71-13.19,2.69
			l0,0.04l0.18,17.69c4.26-0.98,8.67-1.88,13.19-2.69c2.93-0.53,5.91-1.02,8.92-1.47L299.3,97.01"/>
		<path class="st3" d="M299.48,114.74l0-0.05l-0.18-17.69l0-0.11c-3.01,0.45-5.99,0.95-8.92,1.47c-4.52,0.81-8.93,1.71-13.19,2.69
			l0,0.04l0.18,17.75c4.26-0.98,8.67-1.88,13.19-2.69c2.93-0.53,5.91-1.02,8.92-1.47L299.48,114.74"/>
		<path class="st8" d="M299.66,132.53l0-0.04l-0.18-17.75l0-0.06c-3.01,0.45-5.99,0.95-8.92,1.47c-4.52,0.81-8.93,1.71-13.19,2.69
			l0,0.05l0.18,17.69c4.26-0.98,8.67-1.88,13.19-2.69c2.93-0.53,5.91-1.02,8.92-1.47L299.66,132.53"/>
		<path class="st3" d="M299.84,150.26l0-0.04l-0.18-17.69l0-0.11c-3.01,0.45-5.99,0.95-8.92,1.47c-4.52,0.81-8.93,1.71-13.19,2.69
			l0,0.04l0.18,17.75c4.26-0.98,8.67-1.88,13.19-2.69c2.93-0.53,5.91-1.02,8.92-1.47L299.84,150.26"/>
		<path class="st8" d="M300.02,168.05l0-0.05l-0.18-17.75l0-0.05c-3.01,0.45-5.99,0.95-8.92,1.47c-4.52,0.81-8.93,1.71-13.19,2.69
			l0,0.05l0.18,17.69c4.26-0.98,8.67-1.88,13.19-2.69c2.93-0.53,5.91-1.02,8.92-1.47L300.02,168.05"/>
		<path class="st3" d="M277.91,172.15l0-0.04c4.26-0.98,8.67-1.88,13.19-2.69c2.93-0.53,5.91-1.02,8.92-1.47l0,0.11l0.15,14.54
			c-3.01,0.45-5.99,0.95-8.92,1.47c-4.52,0.81-8.93,1.71-13.19,2.69L277.91,172.15"/>
		<g>
			<polyline class="st3" points="276.84,65.55 276.84,65.6 276.84,65.55 			"/>
			<path class="st3" d="M257.76,56.55c5.85-1.93,12.21-3.68,18.94-5.22l0.14,14.23c-6.73,1.55-13.09,3.29-18.94,5.22L257.76,56.55"
				/>
		</g>
		<path class="st8" d="M277.02,83.38l0-0.04l-0.18-17.75l0-0.05c-6.73,1.55-13.09,3.29-18.94,5.22l0,0.04l0.18,17.69
			c5.85-1.93,12.21-3.68,18.94-5.22L277.02,83.38"/>
		<path class="st3" d="M277.19,101.11l0-0.04l-0.18-17.69l0-0.11c-6.73,1.55-13.09,3.29-18.94,5.22l0,0.04l0.18,17.75
			c5.85-1.93,12.21-3.68,18.94-5.22L277.19,101.11"/>
		<path class="st8" d="M277.37,118.9l0-0.05l-0.18-17.75l0-0.05c-6.73,1.55-13.09,3.29-18.94,5.22l0,0.05l0.18,17.69
			c5.85-1.93,12.21-3.68,18.94-5.22L277.37,118.9"/>
		<path class="st3" d="M277.55,136.63l0-0.04l-0.18-17.69l0-0.11c-6.73,1.55-13.09,3.29-18.94,5.22l0,0.04l0.18,17.75
			c5.85-1.93,12.21-3.68,18.94-5.22L277.55,136.63"/>
		<path class="st8" d="M277.73,154.42l0-0.05l-0.18-17.75l0-0.05c-6.73,1.55-13.09,3.29-18.94,5.22l0,0.05l0.18,17.68
			c5.85-1.93,12.21-3.68,18.94-5.22L277.73,154.42"/>
		<path class="st3" d="M277.91,172.15l0-0.04l-0.18-17.69l0-0.12c-6.73,1.55-13.09,3.29-18.94,5.22l0,0.05l0.18,17.75
			c5.85-1.93,12.21-3.68,18.94-5.22L277.91,172.15"/>
		<path class="st8" d="M258.98,177.36l0-0.04c5.85-1.93,12.21-3.68,18.94-5.22l0,0.05l0.15,14.61c-6.73,1.55-13.09,3.29-18.94,5.22
			L258.98,177.36"/>
		<g>
			<polyline class="st8" points="257.9,70.77 257.9,70.7 257.9,70.81 257.9,70.77 			"/>
			<path class="st8" d="M244.21,62.61c2.92-1.87,6.45-3.62,11.01-5.21c0.83-0.29,1.68-0.58,2.53-0.86l0.14,14.16
				c-0.86,0.28-1.7,0.57-2.53,0.86c-4.57,1.59-8.1,3.34-11.01,5.21L244.21,62.61"/>
		</g>
		<path class="st3" d="M258.08,88.54l0-0.04l-0.18-17.69l0-0.11c-0.86,0.28-1.7,0.57-2.53,0.86c-4.57,1.59-8.1,3.34-11.01,5.21
			l0,0.04l0.18,17.75c2.92-1.87,6.45-3.62,11.01-5.21c0.83-0.29,1.68-0.58,2.53-0.86L258.08,88.54"/>
		<path class="st8" d="M258.26,106.33l0-0.05l-0.18-17.75l0-0.05c-0.85,0.28-1.7,0.57-2.53,0.86c-4.57,1.59-8.1,3.34-11.01,5.21
			l0,0.05l0.18,17.69c2.92-1.87,6.45-3.62,11.01-5.21c0.83-0.29,1.68-0.58,2.53-0.86L258.26,106.33"/>
		<path class="st3" d="M258.44,124.06l0-0.04l-0.18-17.69l0-0.11c-0.86,0.28-1.7,0.57-2.53,0.86c-4.57,1.59-8.1,3.34-11.01,5.21
			l0,0.04l0.18,17.75c2.92-1.87,6.45-3.62,11.01-5.21c0.83-0.29,1.68-0.58,2.53-0.86L258.44,124.06"/>
		<path class="st8" d="M258.62,141.85l0-0.05l-0.18-17.75l0-0.05c-0.85,0.28-1.7,0.57-2.53,0.86c-4.57,1.59-8.1,3.34-11.01,5.21
			l0,0.04l0.18,17.69c2.92-1.87,6.45-3.62,11.01-5.21c0.83-0.29,1.68-0.58,2.53-0.86L258.62,141.85"/>
		<path class="st3" d="M258.8,159.58l0-0.05l-0.18-17.68l0-0.12c-0.85,0.28-1.7,0.57-2.53,0.86c-4.57,1.59-8.1,3.34-11.01,5.21
			l0,0.05l0.18,17.75c2.92-1.87,6.45-3.62,11.01-5.21c0.83-0.29,1.68-0.58,2.53-0.86L258.8,159.58"/>
		<path class="st8" d="M258.98,177.36l0-0.04l-0.18-17.75l0-0.05c-0.85,0.28-1.7,0.57-2.53,0.86c-4.57,1.59-8.1,3.34-11.01,5.21
			l0,0.04l0.18,17.69c2.92-1.87,6.45-3.62,11.01-5.21c0.83-0.29,1.68-0.58,2.53-0.86L258.98,177.36"/>
		<path class="st3" d="M245.43,183.37l0-0.05c2.92-1.87,6.45-3.62,11.01-5.21c0.83-0.29,1.68-0.58,2.53-0.86l0,0.11l0.15,14.62
			c-0.86,0.28-1.7,0.57-2.53,0.86c-4.57,1.59-8.1,3.34-11.01,5.21L245.43,183.37"/>
		<g>
			<polyline class="st3" points="244.35,76.77 244.35,76.76 244.36,76.81 244.35,76.77 			"/>
			<path class="st3" d="M235.77,69.63c2.41-2.45,5-4.82,8.45-7.02l0.14,14.15c-3.45,2.2-6.03,4.57-8.45,7.02L235.77,69.63"/>
		</g>
		<path class="st8" d="M244.54,94.6l0-0.05l-0.18-17.75l0-0.05c-3.45,2.2-6.03,4.57-8.45,7.02l0.18,17.74
			c2.41-2.45,5-4.82,8.45-7.02L244.54,94.6"/>
		<path class="st3" d="M244.71,112.33l0-0.04l-0.18-17.69l0-0.11c-3.45,2.2-6.03,4.57-8.45,7.02l0.18,17.78
			c2.41-2.45,5-4.82,8.45-7.02L244.71,112.33"/>
		<path class="st8" d="M244.89,130.11l0-0.04l-0.18-17.75l0-0.05c-3.45,2.2-6.03,4.57-8.45,7.02l0.18,17.73
			c2.41-2.45,5-4.82,8.45-7.02L244.89,130.11"/>
		<path class="st3" d="M245.07,147.85l0-0.05l-0.18-17.69l0-0.11c-3.45,2.2-6.03,4.57-8.45,7.02l0.18,17.79
			c2.41-2.45,5-4.82,8.45-7.02L245.07,147.85"/>
		<path class="st8" d="M245.25,165.63l0-0.04l-0.18-17.75l0-0.05c-3.45,2.2-6.03,4.57-8.45,7.02l0.18,17.73
			c2.41-2.45,5-4.82,8.45-7.02L245.25,165.63"/>
		<path class="st3" d="M245.43,183.37l0-0.05l-0.18-17.69l0-0.11c-3.45,2.2-6.03,4.57-8.45,7.02l0.18,17.78
			c2.41-2.45,5-4.82,8.45-7.02L245.43,183.37"/>
		<path class="st8" d="M236.98,190.34c2.41-2.45,5-4.82,8.45-7.02l0,0.06l0.15,14.67c-3.45,2.2-6.03,4.57-8.45,7.02L236.98,190.34"
			/>
		<path class="st8" d="M228.79,76.76c1.66-1.55,3.14-3.11,4.6-4.66c0.76-0.8,1.52-1.6,2.3-2.39l0.15,14.55l0-0.11
			c-0.77,0.79-1.53,1.59-2.3,2.39c-1.47,1.55-2.95,3.11-4.6,4.66L228.79,76.76"/>
		<path class="st3" d="M236.02,101.99l-0.18-17.73l0-0.11c-0.77,0.79-1.53,1.59-2.3,2.39c-1.47,1.55-2.95,3.11-4.6,4.66l0,0.04
			l0.18,17.75c1.66-1.55,3.14-3.11,4.6-4.66c0.76-0.8,1.52-1.6,2.3-2.39L236.02,101.99"/>
		<path class="st8" d="M236.2,119.77l-0.18-17.78l0-0.05c-0.77,0.79-1.53,1.59-2.3,2.39c-1.47,1.55-2.95,3.11-4.6,4.66l0,0.04
			l0.18,17.69c1.66-1.55,3.14-3.11,4.6-4.66c0.76-0.8,1.52-1.6,2.3-2.39L236.2,119.77"/>
		<path class="st3" d="M236.38,137.51l-0.18-17.74l0-0.11c-0.77,0.79-1.53,1.59-2.3,2.39c-1.47,1.55-2.95,3.11-4.6,4.66l0,0.05
			l0.18,17.75c1.66-1.55,3.14-3.11,4.6-4.66c0.76-0.8,1.52-1.6,2.3-2.39L236.38,137.51"/>
		<path class="st8" d="M236.56,155.29l-0.18-17.78l0-0.05c-0.77,0.79-1.53,1.59-2.3,2.39c-1.47,1.55-2.95,3.11-4.6,4.66l0,0.04
			l0.18,17.69c1.66-1.55,3.14-3.11,4.6-4.66c0.76-0.8,1.52-1.6,2.3-2.39L236.56,155.29"/>
		<path class="st3" d="M236.74,173.03l-0.18-17.74l0-0.11c-0.77,0.79-1.53,1.59-2.3,2.39c-1.47,1.55-2.95,3.11-4.6,4.66l0,0.05
			l0.18,17.75c1.66-1.55,3.14-3.11,4.6-4.66c0.76-0.8,1.52-1.6,2.3-2.39L236.74,173.03"/>
		<path class="st8" d="M236.91,190.81l-0.18-17.78l0-0.05c-0.77,0.79-1.53,1.59-2.3,2.39c-1.47,1.55-2.95,3.11-4.6,4.66l0,0.04
			l0.18,17.69c1.66-1.55,3.14-3.11,4.6-4.66c0.76-0.8,1.52-1.6,2.3-2.39L236.91,190.81"/>
		<path class="st3" d="M230.01,197.8l0-0.04c1.66-1.55,3.14-3.11,4.6-4.66c0.76-0.8,1.52-1.6,2.3-2.39l0,0.11l0.14,14.33
			c-0.77,0.79-1.53,1.59-2.3,2.39c-1.47,1.55-2.95,3.11-4.6,4.66L230.01,197.8"/>
		<g>
			<polyline class="st3" points="228.94,91.2 228.94,91.19 228.94,91.24 228.94,91.2 			"/>
			<path class="st3" d="M219.76,83.51c3.75-2.18,6.59-4.46,9.03-6.75l0.15,14.44c-2.45,2.29-5.28,4.57-9.03,6.75L219.76,83.51"/>
		</g>
		<path class="st8" d="M229.12,109.03l0-0.04l-0.18-17.75l0-0.05c-2.45,2.29-5.28,4.57-9.03,6.75l0,0.04l0.18,17.69
			c3.75-2.18,6.59-4.46,9.03-6.75L229.12,109.03"/>
		<path class="st3" d="M229.3,126.76l0-0.05l-0.18-17.69l0-0.11c-2.45,2.29-5.28,4.57-9.03,6.75l0,0.05l0.18,17.75
			c3.75-2.18,6.58-4.46,9.03-6.75L229.3,126.76"/>
		<path class="st8" d="M229.48,144.55l0-0.04l-0.18-17.75l0-0.05c-2.45,2.29-5.28,4.57-9.03,6.75l0,0.04l0.18,17.69
			c3.75-2.18,6.59-4.46,9.03-6.75L229.48,144.55"/>
		<path class="st3" d="M229.65,162.28l0-0.05l-0.18-17.69l0-0.11c-2.45,2.29-5.28,4.57-9.03,6.75l0,0.04l0.18,17.75
			c3.75-2.18,6.59-4.46,9.03-6.75L229.65,162.28"/>
		<path class="st8" d="M229.83,180.07l0-0.04l-0.18-17.75l0-0.06c-2.45,2.29-5.28,4.57-9.03,6.75l0,0.05l0.18,17.69
			c3.75-2.18,6.59-4.46,9.03-6.75L229.83,180.07"/>
		<path class="st3" d="M230.01,197.8l0-0.04l-0.18-17.69l0-0.11c-2.45,2.29-5.28,4.57-9.03,6.75l0,0.04l0.18,17.75
			c3.75-2.18,6.59-4.46,9.03-6.75L230.01,197.8"/>
		<path class="st8" d="M220.98,204.55l0-0.05c3.75-2.18,6.59-4.46,9.03-6.75l0,0.05l0.15,14.4c-2.45,2.29-5.28,4.57-9.03,6.75
			L220.98,204.55"/>
		<g>
			<polyline class="st8" points="219.9,97.94 219.9,97.88 219.9,97.98 219.9,97.94 			"/>
			<path class="st8" d="M205.22,89.72c6.11-1.94,10.78-4.03,14.53-6.21l0.15,14.37c-3.75,2.18-8.42,4.28-14.53,6.21L205.22,89.72"/>
		</g>
		<path class="st3" d="M220.08,115.72l0-0.05l-0.18-17.69l0-0.11c-3.75,2.18-8.42,4.28-14.53,6.21l0,0.05l0.18,17.75
			c6.11-1.94,10.78-4.03,14.53-6.21L220.08,115.72"/>
		<path class="st8" d="M220.26,133.5l0-0.04l-0.18-17.75l0-0.05c-3.75,2.18-8.42,4.28-14.53,6.21l0,0.04l0.18,17.69
			c6.11-1.94,10.78-4.03,14.53-6.21L220.26,133.5"/>
		<path class="st3" d="M220.44,151.23l0-0.04l-0.18-17.69l0-0.11c-3.75,2.18-8.42,4.28-14.53,6.21l0,0.04l0.18,17.75
			c6.11-1.94,10.78-4.03,14.53-6.21L220.44,151.23"/>
		<path class="st8" d="M220.62,169.02l0-0.05l-0.18-17.75l0-0.05c-3.75,2.18-8.42,4.28-14.53,6.21l0,0.05l0.18,17.69
			c6.11-1.94,10.78-4.03,14.53-6.21L220.62,169.02"/>
		<path class="st3" d="M220.8,186.75l0-0.04l-0.18-17.69l0-0.11c-3.75,2.18-8.42,4.28-14.53,6.21l0,0.04l0.18,17.75
			c6.11-1.94,10.78-4.03,14.53-6.21L220.8,186.75"/>
		<path class="st8" d="M220.98,204.55l0-0.05l-0.18-17.75l0-0.05c-3.75,2.18-8.42,4.28-14.53,6.21l0,0.04l0.18,17.69
			c6.11-1.94,10.78-4.03,14.53-6.21L220.98,204.55"/>
		<path class="st3" d="M206.45,210.69l0-0.05c6.11-1.94,10.78-4.03,14.53-6.21l0,0.12l0.15,14.4c-3.75,2.18-8.42,4.28-14.53,6.21
			C206.54,220.33,206.49,215.51,206.45,210.69"/>
		<g>
			<polyline class="st3" points="205.37,104.09 205.37,104.08 205.37,104.14 205.37,104.09 			"/>
			<path class="st3" d="M181.78,94.71c2.7-0.36,5.38-0.78,8-1.25c4.66-0.84,9.16-1.86,13.35-3.1c0.71-0.21,1.41-0.42,2.09-0.64
				l0.14,14.36c-0.68,0.21-1.37,0.43-2.09,0.64c-4.19,1.24-8.69,2.26-13.35,3.1c-2.63,0.47-5.3,0.89-8,1.25L181.78,94.71"/>
		</g>
		<path class="st8" d="M205.55,121.92l0-0.04l-0.18-17.75l0-0.06c-0.68,0.21-1.37,0.43-2.09,0.64c-4.19,1.24-8.69,2.26-13.35,3.1
			c-2.63,0.47-5.3,0.89-8,1.25l0,0.05l0.18,17.69c2.7-0.36,5.38-0.78,8-1.25c4.66-0.84,9.16-1.86,13.35-3.1
			c0.71-0.21,1.41-0.42,2.09-0.64L205.55,121.92"/>
		<path class="st3" d="M205.73,139.65l0-0.04l-0.18-17.69l0-0.11c-0.68,0.21-1.37,0.43-2.09,0.64c-4.19,1.24-8.69,2.26-13.35,3.1
			c-2.63,0.47-5.3,0.89-8,1.25l0,0.04l0.18,17.75c2.7-0.36,5.38-0.78,8-1.25c4.66-0.84,9.16-1.86,13.35-3.1
			c0.71-0.21,1.41-0.42,2.09-0.64L205.73,139.65"/>
		<path class="st8" d="M205.91,157.45l0-0.05l-0.18-17.75l0-0.05c-0.68,0.21-1.37,0.43-2.09,0.64c-4.19,1.24-8.69,2.26-13.35,3.1
			c-2.63,0.47-5.3,0.89-8,1.25l0,0.05l0.18,17.69c2.7-0.36,5.38-0.78,8-1.25c4.66-0.84,9.16-1.86,13.35-3.1
			c0.71-0.21,1.41-0.42,2.09-0.64L205.91,157.45"/>
		<path class="st3" d="M206.09,175.17l0-0.04l-0.18-17.69l0-0.11c-0.68,0.21-1.37,0.43-2.09,0.64c-4.19,1.24-8.69,2.26-13.35,3.1
			c-2.63,0.47-5.3,0.89-8,1.25l0,0.04l0.18,17.75c2.7-0.36,5.38-0.78,8-1.25c4.66-0.84,9.16-1.86,13.35-3.1
			c0.71-0.21,1.41-0.42,2.09-0.64L206.09,175.17"/>
		<path class="st8" d="M206.27,192.96l0-0.04l-0.18-17.75l0-0.05c-0.68,0.21-1.37,0.43-2.09,0.64c-4.19,1.24-8.69,2.26-13.35,3.1
			c-2.63,0.47-5.3,0.89-8,1.25l0,0.04l0.18,17.69c2.7-0.36,5.38-0.78,8-1.25c4.66-0.84,9.16-1.86,13.35-3.1
			c0.71-0.21,1.41-0.42,2.09-0.64L206.27,192.96"/>
		<path class="st3" d="M206.45,210.69l0-0.05l-0.18-17.69l0-0.11c-0.68,0.21-1.37,0.43-2.09,0.64c-4.19,1.24-8.69,2.26-13.35,3.1
			c-2.63,0.47-5.3,0.89-8,1.25l0,0.05l0.18,17.75c2.7-0.36,5.38-0.78,8-1.25c4.66-0.84,9.16-1.86,13.35-3.1
			c0.71-0.21,1.41-0.42,2.09-0.64L206.45,210.69"/>
		<path class="st8" d="M183,215.67l0-0.04c2.7-0.36,5.38-0.78,8-1.25c4.66-0.84,9.16-1.86,13.35-3.1c0.71-0.21,1.41-0.42,2.09-0.64
			l0,0.05c0.05,4.82,0.1,9.64,0.15,14.46c-0.68,0.21-1.37,0.43-2.09,0.64c-4.19,1.24-8.69,2.26-13.35,3.1
			c-2.63,0.47-5.3,0.89-8,1.25L183,215.67"/>
		<g>
			<polyline class="st8" points="181.92,109.07 181.92,109.01 181.93,109.12 181.92,109.07 			"/>
			<path class="st8" d="M147.45,97.03c10.5-0.15,22.64-0.75,34.33-2.32l0.14,14.3c-11.69,1.57-23.84,2.17-34.33,2.32L147.45,97.03"
				/>
		</g>
		<path class="st3" d="M182.1,126.85l0-0.04l-0.18-17.69l0-0.11c-11.69,1.57-23.84,2.17-34.33,2.32l0,0.04l0.18,17.75
			c10.5-0.15,22.64-0.75,34.33-2.32L182.1,126.85"/>
		<path class="st8" d="M182.28,144.64l0-0.05l-0.18-17.75l0-0.05c-11.69,1.57-23.84,2.17-34.33,2.32l0,0.05l0.18,17.69
			c10.5-0.15,22.64-0.75,34.33-2.32L182.28,144.64"/>
		<path class="st3" d="M182.46,162.37l0-0.04l-0.18-17.69l0-0.11c-11.69,1.57-23.84,2.17-34.33,2.32l0,0.04l0.18,17.75
			c10.5-0.15,22.64-0.75,34.33-2.32L182.46,162.37"/>
		<path class="st8" d="M182.64,180.15l0-0.04l-0.18-17.75l0-0.05c-11.69,1.57-23.84,2.17-34.33,2.32l0,0.04l0.18,17.69
			c10.5-0.15,22.64-0.75,34.33-2.32L182.64,180.15"/>
		<path class="st3" d="M182.82,197.89l0-0.05l-0.18-17.69l0-0.11c-11.69,1.57-23.84,2.17-34.33,2.32l0,0.05l0.18,17.75
			c10.5-0.15,22.64-0.75,34.33-2.32L182.82,197.89"/>
		<path class="st8" d="M183,215.67l0-0.04l-0.18-17.75l0-0.05c-11.69,1.57-23.84,2.17-34.33,2.32l0,0.04l0.18,17.69
			c10.5-0.15,22.64-0.75,34.33-2.32L183,215.67"/>
		<path class="st3" d="M148.67,217.92l0-0.04c10.5-0.15,22.64-0.75,34.33-2.32l0,0.11l0.15,14.47c-11.69,1.57-23.84,2.17-34.33,2.32
			L148.67,217.92"/>
		<g>
			<polyline class="st3" points="147.59,111.33 147.59,111.32 147.59,111.37 147.59,111.33 			"/>
			<path class="st3" d="M122.98,96.62c5.11,0.25,13.96,0.56,24.47,0.41l0.14,14.29c-10.5,0.15-19.36-0.16-24.47-0.41L122.98,96.62"
				/>
		</g>
		<path class="st8" d="M147.77,129.16l0-0.05l-0.18-17.75l0-0.05c-10.5,0.15-19.36-0.16-24.47-0.41l0,0.04l0.18,17.69
			c5.11,0.25,13.96,0.56,24.47,0.41L147.77,129.16"/>
		<path class="st3" d="M147.95,146.89l0-0.04l-0.18-17.69l0-0.12c-10.5,0.15-19.36-0.16-24.47-0.41l0,0.05l0.18,17.75
			c5.11,0.25,13.96,0.56,24.47,0.41L147.95,146.89"/>
		<path class="st8" d="M148.13,164.68l0-0.04l-0.18-17.75l0-0.05c-10.5,0.15-19.36-0.16-24.47-0.41l0,0.04l0.18,17.69
			c5.11,0.25,13.96,0.56,24.47,0.41L148.13,164.68"/>
		<path class="st3" d="M148.31,182.41l0-0.05l-0.18-17.69l0-0.11c-10.5,0.15-19.36-0.16-24.47-0.41l0,0.05l0.18,17.75
			c5.11,0.25,13.96,0.56,24.47,0.41L148.31,182.41"/>
		<path class="st8" d="M148.49,200.2l0-0.04l-0.18-17.75l0-0.05c-10.5,0.15-19.36-0.16-24.47-0.41l0,0.04l0.18,17.69
			c5.11,0.25,13.96,0.56,24.47,0.41L148.49,200.2"/>
		<path class="st3" d="M148.67,217.92l0-0.04l-0.18-17.69l0-0.11c-10.5,0.15-19.36-0.16-24.47-0.41l0,0.04l0.18,17.75
			c5.11,0.25,13.96,0.56,24.47,0.41L148.67,217.92"/>
		<path class="st8" d="M124.2,217.51l0-0.05c5.11,0.25,13.96,0.56,24.47,0.41l0,0.05l0.15,14.54c-10.5,0.15-19.36-0.16-24.47-0.41
			L124.2,217.51"/>
		<g>
			<polyline class="st8" points="123.13,110.91 123.12,110.84 123.13,110.95 123.13,110.91 			"/>
			<path class="st8" d="M118.28,96.35c0.09,0.01,1.79,0.13,4.7,0.27l0.14,14.23c-2.91-0.14-4.6-0.26-4.7-0.27L118.28,96.35"/>
		</g>
		<g>
			<polyline class="st3" points="123.3,128.64 123.3,128.68 123.3,128.64 			"/>
			<path class="st3" d="M118.43,110.57c0.09,0.01,1.79,0.13,4.7,0.27l0,0.11l0.18,17.69c-2.91-0.14-4.6-0.26-4.7-0.27L118.43,110.57
				"/>
		</g>
		<g>
			<polyline class="st8" points="123.48,146.43 123.48,146.36 123.48,146.47 123.48,146.43 			"/>
			<path class="st8" d="M118.61,128.37c0.09,0.01,1.79,0.13,4.7,0.27l0,0.05l0.18,17.68c-2.91-0.14-4.6-0.26-4.7-0.27L118.61,128.37
				"/>
		</g>
		<g>
			<polyline class="st3" points="123.66,164.16 123.66,164.15 123.66,164.21 123.66,164.16 			"/>
			<path class="st3" d="M118.79,146.09c0.09,0.01,1.79,0.13,4.7,0.27l0,0.11l0.18,17.68c-2.91-0.14-4.6-0.26-4.7-0.27L118.79,146.09
				"/>
		</g>
		<g>
			<polyline class="st8" points="123.84,181.95 123.84,181.88 123.84,181.99 123.84,181.95 			"/>
			<path class="st8" d="M118.96,163.88c0.09,0.01,1.79,0.13,4.7,0.27l0,0.06l0.18,17.68c-2.91-0.14-4.6-0.26-4.7-0.27L118.96,163.88
				"/>
		</g>
		<g>
			<polyline class="st3" points="124.02,199.68 124.02,199.67 124.02,199.72 124.02,199.68 			"/>
			<path class="st3" d="M119.14,181.61c0.09,0.01,1.79,0.13,4.7,0.27l0,0.11l0.18,17.68c-2.91-0.14-4.6-0.26-4.7-0.27L119.14,181.61
				"/>
		</g>
		<g>
			<polyline class="st8" points="124.2,217.46 124.2,217.4 124.2,217.51 124.2,217.46 			"/>
			<path class="st8" d="M119.32,199.4c0.09,0.01,1.79,0.13,4.7,0.27l0,0.05l0.18,17.69c-2.91-0.14-4.6-0.26-4.7-0.27L119.32,199.4"
				/>
		</g>
		<path class="st3" d="M119.5,217.13c0.09,0.01,1.79,0.13,4.7,0.27l0,0.11l0.15,14.54c-2.91-0.14-4.6-0.26-4.7-0.27L119.5,217.13"/>
	</g>
</g>
</svg>
